<?xml version="1.0" encoding="UTF-8" standalone="no"?>
<!-- Uploaded to: SVG Repo, www.svgrepo.com, Generator: SVG Repo Mixer Tools -->

<svg
   width="19.203148"
   height="23.999912"
   viewBox="0 0 0.57609444 0.71999737"
   fill="none"
   version="1.1"
   id="svg1"
   sodipodi:docname="icon-save-file.svg"
   inkscape:version="1.4 (1:1.4+202410161351+e7c3feb100)"
   xmlns:inkscape="http://www.inkscape.org/namespaces/inkscape"
   xmlns:sodipodi="http://sodipodi.sourceforge.net/DTD/sodipodi-0.dtd"
   xmlns="http://www.w3.org/2000/svg"
   xmlns:svg="http://www.w3.org/2000/svg">
  <defs
     id="defs1" />
  <sodipodi:namedview
     id="namedview1"
     pagecolor="#ffffff"
     bordercolor="#999999"
     borderopacity="1"
     inkscape:showpageshadow="2"
     inkscape:pageopacity="0"
     inkscape:pagecheckerboard="0"
     inkscape:deskcolor="#d1d1d1"
     inkscape:zoom="1.51125"
     inkscape:cx="266.99752"
     inkscape:cy="333.16791"
     inkscape:window-width="2560"
     inkscape:window-height="1389"
     inkscape:window-x="0"
     inkscape:window-y="25"
     inkscape:window-maximized="1"
     inkscape:current-layer="svg1" />
  <path
     d="m 0.14406719,0.03601235 c 0.00233,-2.1e-6 0.00472,-2.1e-6 0.0072,-2.1e-6 h 0.1894055 c 0.02033,0 0.030495,0 0.039879,0.00259 0.0054,0.00149 0.01059,0.00359 0.015481,0.00627 m -0.2519648,-0.00886 c -0.035576,2.77e-5 -0.054223,4.795e-4 -0.068678,0.00784 -0.013546,0.0069 -0.024559,0.017915 -0.031461,0.031461 -0.00785,0.0154 -0.00785,0.035559 -0.00785,0.075877 v 0.4175431 c 0,0.040318 0,0.060475 0.00785,0.075874 0.0069,0.013549 0.017915,0.024559 0.031461,0.031463 0.015399,0.00785 0.035559,0.00785 0.075877,0.00785 h 0.2735617 c 0.040318,0 0.060479,0 0.075877,-0.00785 0.013545,-0.0069 0.024559,-0.017915 0.03146,-0.031463 0.00785,-0.015399 0.00785,-0.035556 0.00785,-0.075874 v -0.312342 c 0,-0.014975 0,-0.022463 -0.00147,-0.029625 -0.00131,-0.00635 -0.00346,-0.012502 -0.00641,-0.018279 -0.00333,-0.00651 -0.008,-0.012357 -0.017357,-0.024051 l -0.0841627,-0.1051949 c -0.012699,-0.015875 -0.019052,-0.023813 -0.026931,-0.029526 -0.00245,-0.00178 -0.00501,-0.00339 -0.00765,-0.00484 m -0.2519677,-0.0088611 v 0.1439259 h 0.2519648 v -0.1350679 m 0,0.4230269 c 0,0.05964 -0.048345,0.1079849 -0.1079849,0.1079849 -0.05964,0 -0.1079849,-0.048345 -0.1079849,-0.1079849 0,-0.059637 0.048345,-0.1079849 0.1079849,-0.1079849 0.05964,0 0.1079849,0.048348 0.1079849,0.1079849 z"
     stroke="#000000"
     stroke-width="0.0719899"
     stroke-linecap="round"
     stroke-linejoin="round"
     id="path1" />
</svg>
