<?xml version="1.0" encoding="UTF-8" standalone="no"?>
<!-- Uploaded to: SVG Repo, www.svgrepo.com, Generator: SVG Repo Mixer Tools -->

<svg
   width="19.201284"
   height="24.000294"
   viewBox="0 0 0.57603853 0.72000881"
   fill="none"
   version="1.1"
   id="svg1"
   sodipodi:docname="file-svgrepo-com.svg"
   inkscape:version="1.4 (1:1.4+202410161351+e7c3feb100)"
   xmlns:inkscape="http://www.inkscape.org/namespaces/inkscape"
   xmlns:sodipodi="http://sodipodi.sourceforge.net/DTD/sodipodi-0.dtd"
   xmlns="http://www.w3.org/2000/svg"
   xmlns:svg="http://www.w3.org/2000/svg">
  <defs
     id="defs1" />
  <sodipodi:namedview
     id="namedview1"
     pagecolor="#ffffff"
     bordercolor="#999999"
     borderopacity="1"
     inkscape:showpageshadow="2"
     inkscape:pageopacity="0"
     inkscape:pagecheckerboard="0"
     inkscape:deskcolor="#d1d1d1"
     inkscape:zoom="1.51125"
     inkscape:cx="266.99752"
     inkscape:cy="333.16791"
     inkscape:window-width="2560"
     inkscape:window-height="1389"
     inkscape:window-x="0"
     inkscape:window-y="25"
     inkscape:window-maximized="1"
     inkscape:current-layer="svg1" />
  <path
     d="m 0.53996286,0.25203005 v 0.3167261 c 0,0.040314 0,0.060473 -0.00785,0.07587 -0.0069,0.013544 -0.017913,0.024557 -0.031457,0.031457 -0.015397,0.00785 -0.035556,0.00785 -0.07587,0.00785 h -0.2735322 c -0.040315,0 -0.060472,0 -0.07587,-0.00785 -0.013545,-0.0069 -0.024557,-0.017913 -0.031458,-0.031457 -0.00785,-0.015397 -0.00785,-0.035556 -0.00785,-0.07587 v -0.4175026 c 0,-0.040315 0,-0.060472 0.00785,-0.07587 0.0069,-0.013545 0.017913,-0.024557 0.031458,-0.031458 0.015398,-0.00785 0.035555,-0.00785 0.07587,-0.00785 h 0.1727597 m 0.2159495,0.2159545 -0.2159495,-0.2159496 m 0.2159495,0.2159496 h -0.179958 c -0.019878,0 -0.035991,-0.016114 -0.035991,-0.035992 v -0.179958"
     stroke="#000000"
     stroke-width="0.0719832"
     stroke-linecap="round"
     stroke-linejoin="round"
     id="path1" />
</svg>
