<?xml version="1.0" encoding="UTF-8" standalone="no"?>
<!-- Uploaded to: SVG Repo, www.svgrepo.com, Generator: SVG Repo Mixer Tools -->

<svg
   width="20"
   height="20"
   viewBox="0 0 12.8 12.8"
   version="1.1"
   id="svg1"
   sodipodi:docname="icon-new_16x16.svg"
   inkscape:version="1.4 (1:1.4+202410161351+e7c3feb100)"
   xmlns:inkscape="http://www.inkscape.org/namespaces/inkscape"
   xmlns:sodipodi="http://sodipodi.sourceforge.net/DTD/sodipodi-0.dtd"
   xmlns="http://www.w3.org/2000/svg"
   xmlns:svg="http://www.w3.org/2000/svg">
  <defs
     id="defs1" />
  <sodipodi:namedview
     id="namedview1"
     pagecolor="#ffffff"
     bordercolor="#999999"
     borderopacity="1"
     inkscape:showpageshadow="2"
     inkscape:pageopacity="0"
     inkscape:pagecheckerboard="0"
     inkscape:deskcolor="#d1d1d1"
     inkscape:zoom="6.045"
     inkscape:cx="23.325062"
     inkscape:cy="50.041356"
     inkscape:window-width="2560"
     inkscape:window-height="1389"
     inkscape:window-x="0"
     inkscape:window-y="25"
     inkscape:window-maximized="1"
     inkscape:current-layer="svg1" />
  <title
     id="title1">new-indicator</title>
  <g
     id="Page-1"
     stroke="none"
     stroke-width="26.6667"
     fill="none"
     fill-rule="evenodd"
     transform="matrix(0.0375,0,0,0.0375,-3.2,-3.2)">
    <g
       id="scheduler"
       fill="#000000"
       transform="translate(85.333333,85.333333)"
       style="stroke-width:26.6667">
      <path
         d="m 170.66667,0 c 94.25659,0 170.66666,76.410069 170.66666,170.66667 0,94.25659 -76.41007,170.66666 -170.66666,170.66666 C 76.410069,341.33333 0,264.92326 0,170.66667 0,76.410069 76.410069,0 170.66667,0 Z m 0,42.666667 c -70.692451,0 -128.000003,57.307552 -128.000003,128.000003 0,70.69244 57.307552,128 128.000003,128 70.69244,0 128,-57.30756 128,-128 0,-70.692451 -57.30756,-128.000003 -128,-128.000003 z M 192,85.333333 191.99933,149.33333 H 256 V 192 L 191.99933,191.99933 192,256 H 149.33333 V 191.99933 L 85.333333,192 V 149.33333 H 149.33333 V 85.333333 Z"
         id="Combined-Shape"
         style="stroke-width:26.6667" />
    </g>
  </g>
</svg>
