<?xml version="1.0" encoding="UTF-8" standalone="no"?>
<!-- Uploaded to: SVG Repo, www.svgrepo.com, Generator: SVG Repo Mixer Tools -->

<svg
   width="25.601488"
   height="32"
   viewBox="0 0 0.76804465 0.96"
   fill="none"
   version="1.1"
   id="svg1"
   sodipodi:docname="icon-save-file.svg"
   inkscape:version="1.4 (1:1.4+202410161351+e7c3feb100)"
   xmlns:inkscape="http://www.inkscape.org/namespaces/inkscape"
   xmlns:sodipodi="http://sodipodi.sourceforge.net/DTD/sodipodi-0.dtd"
   xmlns="http://www.w3.org/2000/svg"
   xmlns:svg="http://www.w3.org/2000/svg">
  <defs
     id="defs1" />
  <sodipodi:namedview
     id="namedview1"
     pagecolor="#ffffff"
     bordercolor="#999999"
     borderopacity="1"
     inkscape:showpageshadow="2"
     inkscape:pageopacity="0"
     inkscape:pagecheckerboard="0"
     inkscape:deskcolor="#d1d1d1"
     inkscape:zoom="12.09"
     inkscape:cx="11.331679"
     inkscape:cy="28.370554"
     inkscape:window-width="1278"
     inkscape:window-height="1384"
     inkscape:window-x="1280"
     inkscape:window-y="25"
     inkscape:window-maximized="0"
     inkscape:current-layer="svg1" />
  <path
     d="M 0.38402323,0.43201224 V 0.7199458 m 0,0 -0.0959783,-0.0959783 m 0.0959783,0.0959783 0.0959783,-0.0959783 M 0.43201216,0.04810082 h -0.2303468 c -0.0537521,0 -0.0806282,0 -0.10116027,0.01046 -0.01806004,0.0092 -0.03274208,0.02388407 -0.04194411,0.04194411 -0.01046,0.02053 -0.01046,0.0474081 -0.01046,0.10116027 v 0.55667146 c 0,0.0537521 0,0.0806303 0.01046,0.10116027 0.0092,0.01806 0.02388407,0.0327421 0.04194411,0.0419421 0.02053,0.01046 0.0474081,0.01046 0.10116027,0.01046 h 0.36471595 c 0.0537521,0 0.0806303,0 0.10116027,-0.01046 0.01806,-0.0092 0.0327421,-0.023884 0.0419421,-0.0419421 0.01046,-0.02053 0.01046,-0.0474081 0.01046,-0.10116027 V 0.3360344 M 0.43201215,0.04810083 0.71994571,0.3360344 M 0.43201215,0.04810083 V 0.2592522 c 0,0.0268761 0,0.0403141 0.00524,0.0505801 0.0046,0.00902 0.01194,0.01638 0.020972,0.020972 0.01026,0.00524 0.0237021,0.00524 0.0505801,0.00524 h 0.21115116"
     stroke="#000000"
     stroke-width="0.0959779"
     stroke-linecap="round"
     stroke-linejoin="round"
     id="path1" />
</svg>
