<?xml version="1.0" encoding="UTF-8" standalone="no"?>
<!-- Uploaded to: SVG Repo, www.svgrepo.com, Transformed by: SVG Repo Mixer Tools -->

<svg
   width="64"
   height="64"
   viewBox="0 0 1.92 1.92"
   fill="none"
   version="1.1"
   id="svg3"
   sodipodi:docname="image-placeholder.svg"
   inkscape:version="1.4 (1:1.4+202410161351+e7c3feb100)"
   xmlns:inkscape="http://www.inkscape.org/namespaces/inkscape"
   xmlns:sodipodi="http://sodipodi.sourceforge.net/DTD/sodipodi-0.dtd"
   xmlns="http://www.w3.org/2000/svg"
   xmlns:svg="http://www.w3.org/2000/svg">
  <defs
     id="defs3" />
  <sodipodi:namedview
     id="namedview3"
     pagecolor="#ffffff"
     bordercolor="#999999"
     borderopacity="1"
     inkscape:showpageshadow="2"
     inkscape:pageopacity="0"
     inkscape:pagecheckerboard="0"
     inkscape:deskcolor="#d1d1d1"
     inkscape:zoom="1.51125"
     inkscape:cx="366.91481"
     inkscape:cy="366.91481"
     inkscape:window-width="2560"
     inkscape:window-height="1389"
     inkscape:window-x="0"
     inkscape:window-y="25"
     inkscape:window-maximized="1"
     inkscape:current-layer="svg3" />
  <g
     id="SVGRepo_bgCarrier"
     stroke-width="0"
     transform="matrix(0.08727273,0,0,0.08727273,-0.08727273,-0.08727273)" />
  <g
     id="SVGRepo_tracerCarrier"
     stroke-linecap="round"
     stroke-linejoin="round"
     transform="matrix(0.08727273,0,0,0.08727273,-0.08727273,-0.08727273)"
     style="stroke-width:11.4583" />
  <g
     id="SVGRepo_iconCarrier"
     transform="matrix(0.08727273,0,0,0.08727273,-0.08727273,-0.08727273)"
     style="stroke-width:11.4583">
    <path
       fill-rule="evenodd"
       clip-rule="evenodd"
       d="M 23,4 C 23,2.34315 21.6569,1 20,1 H 4 C 2.34315,1 1,2.34315 1,4 v 16 c 0,1.6569 1.34315,3 3,3 h 16 c 1.6569,0 3,-1.3431 3,-3 z M 21,4 C 21,3.44772 20.5523,3 20,3 H 4 C 3.44772,3 3,3.44772 3,4 v 16 c 0,0.5523 0.44772,1 1,1 h 16 c 0.5523,0 1,-0.4477 1,-1 z"
       fill="#0f0f0f"
       id="path1"
       style="stroke-width:131.293" />
    <path
       d="M 4.80665,17.5211 9.1221,9.60947 c 0.37902,-0.69486 1.3768,-0.69486 1.7558,0 l 3.1686,5.80913 1.0853,-1.8992 c 0.3839,-0.6718 1.3525,-0.6718 1.7364,0 l 2.2769,3.9845 C 19.526,18.1705 19.0446,19 18.2768,19 H 5.68454 C 4.92548,19 4.44317,18.1875 4.80665,17.5211 Z"
       fill="#0f0f0f"
       id="path2"
       style="stroke-width:131.293" />
    <path
       d="m 18,8 c 0,1.10457 -0.8954,2 -2,2 -1.1046,0 -2,-0.89543 -2,-2 0,-1.10457 0.8954,-2 2,-2 1.1046,0 2,0.89543 2,2 z"
       fill="#0f0f0f"
       id="path3"
       style="stroke-width:131.293" />
  </g>
</svg>
